<svg id="Calque_1" data-name="Calque 1" xmlns="http://www.w3.org/2000/svg" xmlns:xlink="http://www.w3.org/1999/xlink" viewBox="0 0 60.37 17.25"><defs><style>.cls-1{fill:#fff;}.cls-2{fill:url(#Dégradé_sans_nom_3);}</style><radialGradient id="Dégradé_sans_nom_3" cx="2.72" cy="-0.77" r="0.37" gradientTransform="matrix(26.75, 27.11, 27.11, -26.75, -52.02, -94.41)" gradientUnits="userSpaceOnUse"><stop offset="0" stop-color="#ea212e"/><stop offset="0.5" stop-color="#ae151e"/><stop offset="1" stop-color="#9b0f17"/></radialGradient></defs><polygon class="cls-1" points="25.64 7.77 24.34 7.77 24.34 3.36 22.97 3.36 22.97 9.05 25.64 9.05 25.64 7.77"/><path class="cls-1" d="M452.58,593.05v-3.41h-1.37v3.41c0,.65-.31,1.1-1,1.1s-1-.45-1-1.09v-3.42h-1.37v3.42a2.13,2.13,0,0,0,2.34,2.38A2.19,2.19,0,0,0,452.58,593.05Z" transform="translate(-421.66 -586.28)"/><polygon class="cls-1" points="36.72 3.36 35.39 3.36 35.39 6.8 33.26 3.36 31.84 3.36 31.84 9.05 33.16 9.05 33.16 5.69 35.36 9.05 36.72 9.05 36.72 3.36"/><path class="cls-1" d="M460.88,589.64l-2,5.69h1.35l.47-1.35h1.79l.48,1.35h1.46l-2.11-5.69Zm.22,3.18.5-1.44.51,1.44Z" transform="translate(-421.66 -586.28)"/><polygon class="cls-1" points="42.55 4.64 43.51 4.64 43.51 9.05 44.88 9.05 44.88 4.64 45.83 4.64 45.83 3.36 42.55 3.36 42.55 4.64"/><polygon class="cls-1" points="49.32 4.64 49.32 3.36 46.62 3.36 46.62 9.05 49.34 9.05 49.34 7.77 47.99 7.77 47.99 6.79 49.27 6.79 49.27 5.52 47.99 5.52 47.99 4.64 49.32 4.64"/><path class="cls-1" d="M474.76,590.82a1.64,1.64,0,0,1,1.1.42l.81-1a2.81,2.81,0,0,0-1.92-.68,2.89,2.89,0,0,0-3,3,2.85,2.85,0,0,0,3,3,2.59,2.59,0,0,0,1.89-.74l-.8-1a1.7,1.7,0,0,1-1.09.43,1.59,1.59,0,0,1-1.59-1.68A1.53,1.53,0,0,1,474.76,590.82Z" transform="translate(-421.66 -586.28)"/><polygon class="cls-1" points="58.99 5.5 57.02 5.5 57.02 3.36 55.64 3.36 55.64 9.05 57.02 9.05 57.02 6.81 58.99 6.81 58.99 9.05 60.37 9.05 60.37 3.36 58.99 3.36 58.99 5.5"/><path class="cls-1" d="M446.21,599.7c0-.44-.36-.54-.74-.59-.22,0-.41-.07-.41-.23s.12-.25.38-.25a.52.52,0,0,1,.43.21l.28-.14a.74.74,0,0,0-.72-.37c-.34,0-.72.15-.72.54s.35.51.73.55.42.1.42.28-.2.27-.42.27a.53.53,0,0,1-.52-.29l-.29.15a.76.76,0,0,0,.8.45C445.85,600.28,446.21,600.11,446.21,599.7Z" transform="translate(-421.66 -586.28)"/><rect class="cls-1" x="25.77" y="12.1" width="0.35" height="1.85"/><polygon class="cls-1" points="29.34 13.95 29.34 12.1 28.95 12.1 28.37 12.9 27.79 12.1 27.39 12.1 27.39 13.95 27.74 13.95 27.74 12.61 28.33 13.41 28.4 13.41 29 12.61 29 13.95 29.34 13.95"/><path class="cls-1" d="M452.63,599.68h.52a.65.65,0,0,0,.06-1.3h-.93v1.84h.35Zm0-1h.52a.33.33,0,0,1,.05.65h-.57Z" transform="translate(-421.66 -586.28)"/><polygon class="cls-1" points="33.35 12.1 33.35 13.95 34.65 13.95 34.65 13.62 33.7 13.62 33.7 12.1 33.35 12.1"/><rect class="cls-1" x="35.84" y="12.1" width="0.35" height="1.85"/><polygon class="cls-1" points="38.79 12.44 38.79 12.1 37.46 12.1 37.46 13.95 37.81 13.95 37.81 13.26 38.74 13.26 38.74 12.94 37.81 12.94 37.81 12.44 38.79 12.44"/><polygon class="cls-1" points="41.01 13.95 41.01 13.18 41.75 12.12 41.75 12.1 41.33 12.1 40.84 12.86 40.37 12.1 39.95 12.1 39.95 12.12 40.66 13.18 40.66 13.95 41.01 13.95"/><polygon class="cls-1" points="45.28 13.95 45.28 13.18 46.02 12.12 46.02 12.1 45.6 12.1 45.11 12.86 44.64 12.1 44.22 12.1 44.22 12.12 44.93 13.18 44.93 13.95 45.28 13.95"/><path class="cls-1" d="M469.65,598.34a.92.92,0,0,0-.95,1,.9.9,0,0,0,.84.95h.11a1,1,0,0,0,.09-1.92Zm.6,1a.61.61,0,1,1-1.22,0,.61.61,0,1,1,1.22,0Z" transform="translate(-421.66 -586.28)"/><path class="cls-1" d="M471.8,598.38v1.06a.76.76,0,0,0,.71.82h.11a.76.76,0,0,0,.79-.83v-1.06h-.34v1.06c0,.32-.16.51-.46.51a.45.45,0,0,1-.47-.51v-1.06Z" transform="translate(-421.66 -586.28)"/><path class="cls-1" d="M476.25,599a.61.61,0,0,0-.67-.61h-.87v1.85h.34v-.62h.34l.54.62h.41v0l-.56-.63A.56.56,0,0,0,476.25,599Zm-.62.3h-.58v-.6h.53a.3.3,0,0,1,.32.28A.29.29,0,0,1,475.63,599.29Z" transform="translate(-421.66 -586.28)"/><rect class="cls-1" x="57.25" y="12.1" width="0.35" height="1.85"/><polygon class="cls-1" points="59.78 13.94 59.78 12.42 60.37 12.42 60.37 12.1 58.84 12.1 58.85 12.42 59.43 12.42 59.43 13.94 59.78 13.94"/><rect class="cls-2" width="17.25" height="17.25"/><path class="cls-1" d="M434.78,591.52h-7.15a.89.89,0,0,0-.87.91v5a.88.88,0,0,0,.87.9h4.73a.88.88,0,0,0,.86-.9v-4.06h1.56a.88.88,0,0,0,.86-.9A.88.88,0,0,0,434.78,591.52Zm-3.28,5h-3v-3.15h3Z" transform="translate(-421.66 -586.28)"/></svg>