<svg id="Calque_1" data-name="Calque 1" xmlns="http://www.w3.org/2000/svg" xmlns:xlink="http://www.w3.org/1999/xlink" viewBox="0 0 414.47 120"><defs><style>.cls-1{fill:#fff;}.cls-2{fill:url(#Dégradé_sans_nom_2);}</style><radialGradient id="Dégradé_sans_nom_2" cx="18.5" cy="766.86" r="2.57" gradientTransform="translate(20293.83 -21015.44) rotate(45.38) scale(38.09)" gradientUnits="userSpaceOnUse"><stop offset="0" stop-color="#ea212e"/><stop offset="0.5" stop-color="#ae151e"/><stop offset="1" stop-color="#9b0f17"/></radialGradient></defs><polygon class="cls-1" points="177.6 54.14 168.73 54.14 168.73 24.06 159.35 24.06 159.35 62.9 177.6 62.9 177.6 54.14"/><path class="cls-1" d="M689.55,371.52V348.23H680.2v23.29c0,4.38-2.13,7.47-6.56,7.47-4.61,0-6.69-3-6.69-7.42V348.23h-9.34v23.34c0,9.72,5,16.22,15.94,16.22C684.18,387.79,689.55,380.9,689.55,371.52Z" transform="translate(-475.99 -324.17)"/><polygon class="cls-1" points="253.16 24.06 244.11 24.06 244.11 47.52 229.52 24.06 219.87 24.06 219.87 62.9 228.9 62.9 228.9 39.94 243.88 62.9 253.16 62.9 253.16 24.06"/><path class="cls-1" d="M746.21,348.23l-13.59,38.84h9.2l3.2-9.27h12.24l3.26,9.27h9.93l-14.37-38.84ZM747.7,370l3.43-9.82,3.43,9.82Z" transform="translate(-475.99 -324.17)"/><polygon class="cls-1" points="292.95 32.81 299.46 32.81 299.46 62.9 308.83 62.9 308.83 32.81 315.29 32.81 315.29 24.06 292.95 24.06 292.95 32.81"/><polygon class="cls-1" points="339.09 32.81 339.09 24.06 320.68 24.06 320.68 62.9 339.26 62.9 339.26 54.15 330.06 54.15 330.06 47.47 338.81 47.47 338.81 38.82 330.06 38.82 330.06 32.81 339.09 32.81"/><path class="cls-1" d="M840.89,356.25a11.2,11.2,0,0,1,7.47,2.92l5.56-7.07a19.05,19.05,0,0,0-13.13-4.6c-12.41,0-20.49,9-20.49,20.2S828,387.79,841,387.79a18,18,0,0,0,12.9-5l-5.5-6.63A11.16,11.16,0,0,1,841,379c-6.51,0-10.84-5-10.84-11.43S834,356.25,840.89,356.25Z" transform="translate(-475.99 -324.17)"/><polygon class="cls-1" points="405.1 38.65 391.63 38.65 391.63 24.06 382.25 24.06 382.25 62.9 391.63 62.9 391.63 47.58 405.1 47.58 405.1 62.9 414.47 62.9 414.47 24.06 405.1 24.06 405.1 38.65"/><path class="cls-1" d="M646.11,416.84c0-3-2.44-3.69-5.07-4-1.5-.19-2.8-.49-2.8-1.59,0-.93.84-1.67,2.61-1.67a3.58,3.58,0,0,1,3,1.4l1.89-1c-1-1.95-3-2.51-4.94-2.51-2.31,0-4.87,1-4.87,3.67,0,2.82,2.37,3.51,5,3.81,1.67.19,2.9.66,2.9,1.86s-1.4,1.85-2.88,1.85a3.59,3.59,0,0,1-3.55-2l-2,1c.94,2.31,2.92,3.12,5.48,3.12C643.63,420.85,646.11,419.64,646.11,416.84Z" transform="translate(-475.99 -324.17)"/><rect class="cls-1" x="178.45" y="83.69" width="2.36" height="12.59"/><polygon class="cls-1" points="202.85 96.28 202.85 83.7 200.13 83.7 196.2 89.12 192.25 83.7 189.52 83.7 189.52 96.28 191.9 96.28 191.9 87.14 195.91 92.62 196.38 92.62 200.48 87.16 200.48 96.28 202.85 96.28"/><path class="cls-1" d="M689.9,416.73h3.56a4.45,4.45,0,1,0,.43-8.89h-6.36v12.58h2.37Zm0-6.63h3.56a2.23,2.23,0,1,1,.31,4.45H689.9Z" transform="translate(-475.99 -324.17)"/><polygon class="cls-1" points="230.17 83.69 230.17 96.28 239.01 96.28 239.01 94.07 232.55 94.07 232.55 83.69 230.17 83.69"/><rect class="cls-1" x="247.18" y="83.69" width="2.36" height="12.59"/><polygon class="cls-1" points="267.28 85.98 267.28 83.7 258.24 83.7 258.24 96.28 260.61 96.28 260.61 91.61 266.92 91.61 266.92 89.42 260.61 89.42 260.61 85.98 267.28 85.98"/><polygon class="cls-1" points="282.43 96.28 282.43 91.07 287.45 83.79 287.45 83.69 284.59 83.69 281.25 88.88 278.05 83.69 275.23 83.69 275.23 83.79 280.06 91.07 280.06 96.28 282.43 96.28"/><polygon class="cls-1" points="311.55 96.28 311.55 91.07 316.57 83.79 316.57 83.69 313.71 83.69 310.37 88.88 307.17 83.69 304.34 83.69 304.34 83.79 309.18 91.07 309.18 96.28 311.55 96.28"/><path class="cls-1" d="M806,407.61c-4.35,0-6.48,3.32-6.48,6.62a6.13,6.13,0,0,0,5.76,6.49,4.33,4.33,0,0,0,.72,0c4.42,0,6.42-3.25,6.45-6.5a6.25,6.25,0,0,0-5.83-6.61Zm4.11,6.63c0,2.08-1.15,4.29-4.15,4.29s-4.08-2.21-4.16-4.28a4.12,4.12,0,0,1,4.16-4.51C808.92,409.74,810.13,412.13,810.1,414.24Z" transform="translate(-475.99 -324.17)"/><path class="cls-1" d="M820.65,407.88v7.2a5.26,5.26,0,0,0,4.86,5.63,4.57,4.57,0,0,0,.74,0c3.12,0,5.44-1.91,5.44-5.63v-7.2h-2.36v7.2c0,2.15-1.1,3.47-3.11,3.47s-3.25-1.2-3.25-3.47v-7.2Z" transform="translate(-475.99 -324.17)"/><path class="cls-1" d="M851,412c0-2.17-1.57-4.15-4.53-4.15h-6v12.6h2.38v-4.21h2.28l3.67,4.21h2.82v-.16l-3.81-4.3A3.73,3.73,0,0,0,851,412Zm-4.24,2.06h-.29v0h-3.61v-4h3.61a2,2,0,0,1,.29,4Z" transform="translate(-475.99 -324.17)"/><rect class="cls-1" x="393.23" y="83.69" width="2.36" height="12.59"/><polygon class="cls-1" points="410.49 96.23 410.49 85.85 414.47 85.85 414.47 83.69 404.09 83.69 404.12 85.85 408.11 85.85 408.11 96.23 410.49 96.23"/><rect class="cls-2" width="120" height="120"/><path class="cls-1" d="M567.26,360.62H517.52a6.2,6.2,0,0,0-6.06,6.33h0v34.78a6.13,6.13,0,0,0,6,6.26h33a6.11,6.11,0,0,0,6-6.25h0V373.49h10.86a6.13,6.13,0,0,0,6-6.26h0a6.13,6.13,0,0,0-5.62-6.59ZM544.44,395.4H523.57V373.49h20.87Z" transform="translate(-475.99 -324.17)"/></svg>