<?xml version="1.0" encoding="UTF-8"?>
<svg width="167px" height="48px" viewBox="0 0 167 48" version="1.1" xmlns="http://www.w3.org/2000/svg" xmlns:xlink="http://www.w3.org/1999/xlink">
    <!-- Generator: Sketch 54.1 (76490) - https://sketchapp.com -->
    <title>Group 40</title>
    <desc>Created with Sketch.</desc>
    <defs>
        <polygon id="path-1" points="0.0004 0.3854 47.6194 0.3854 47.6194 48 0.0004 48"></polygon>
        <polygon id="path-3" points="0.5035 0.6588 13.535 0.6588 13.535 16.3648 0.5035 16.3648"></polygon>
        <polygon id="path-5" points="0 48 166.535 48 166.535 0.385 0 0.385"></polygon>
    </defs>
    <g id="Page-1" stroke="none" stroke-width="1" fill="none" fill-rule="evenodd">
        <g id="Desktop-HD-Copy-2" transform="translate(-60.000000, -61.000000)">
            <g id="Group-40" transform="translate(60.000000, 60.000000)">
                <polygon id="Fill-1" fill="#FFFFFF" points="2.646 45.972 44.974 45.972 44.974 3.644 2.646 3.644"></polygon>
                <polygon id="Fill-2" fill="#EA212E" points="18.843 29.151 27.142 29.151 27.142 20.465 18.843 20.465"></polygon>
                <g id="Group-39" transform="translate(0.000000, 0.615000)">
                    <g id="Group-5">
                        <mask id="mask-2" fill="white">
                            <use xlink:href="#path-1"></use>
                        </mask>
                        <g id="Clip-4"></g>
                        <path d="M14.0774,31.0334 L14.0774,17.3514 C14.0464,16.0044 15.1134,14.8874 16.4614,14.8564 L16.4624,14.8564 L36.2014,14.8564 C37.5794,15.0454 38.5454,16.3144 38.3564,17.6934 C38.2034,18.8154 37.3224,19.6974 36.2014,19.8494 L31.9084,19.8494 L31.9084,31.0334 C31.9384,32.3794 30.8734,33.4964 29.5274,33.5274 L16.4624,33.5274 C15.1154,33.4984 14.0474,32.3824 14.0774,31.0344 L14.0774,31.0334 Z M0.0004,48.0004 L47.6194,48.0004 L47.6194,0.3854 L0.0004,0.3854 L0.0004,48.0004 Z" id="Fill-3" fill="#EA212E" mask="url(#mask-2)"></path>
                    </g>
                    <polygon id="Fill-6" fill="#FFFFFF" points="70.7425 21.8244 67.1565 21.8244 67.1565 9.6584 63.3635 9.6584 63.3635 25.3644 70.7425 25.3644"></polygon>
                    <path d="M85.2854,19.0783 L85.2854,9.6583 L81.5064,9.6583 L81.5064,19.0783 C81.5064,20.8503 80.6454,22.0973 78.8514,22.0973 C76.9874,22.0973 76.1474,20.8713 76.1474,19.0993 L76.1474,9.6583 L72.3674,9.6583 L72.3674,19.0993 C72.3674,23.0293 74.3884,25.6583 78.8144,25.6583 C83.1144,25.6583 85.2854,22.8703 85.2854,19.0783" id="Fill-8" fill="#FFFFFF"></path>
                    <polygon id="Fill-10" fill="#FFFFFF" points="101.2991 9.6574 97.6411 9.6574 97.6411 19.1454 91.7401 9.6574 87.8351 9.6574 87.8351 25.3644 91.4891 25.3644 91.4891 16.0794 97.5481 25.3644 101.2991 25.3644"></polygon>
                    <path d="M108.804,18.4435 L110.19,14.4705 L111.575,18.4435 L108.804,18.4435 Z M108.199,9.6585 L102.705,25.3655 L106.426,25.3655 L107.72,21.6195 L112.667,21.6195 L113.986,25.3655 L118.005,25.3655 L112.193,9.6585 L108.199,9.6585 Z" id="Fill-12" fill="#FFFFFF"></path>
                    <polygon id="Fill-14" fill="#FFFFFF" points="117.3919 13.1984 120.0249 13.1984 120.0249 25.3654 123.8129 25.3654 123.8129 13.1984 126.4249 13.1984 126.4249 9.6584 117.3919 9.6584"></polygon>
                    <polygon id="Fill-16" fill="#FFFFFF" points="136.0511 13.1984 136.0511 9.6584 128.6051 9.6584 128.6051 25.3654 136.1171 25.3654 136.1171 21.8244 132.3981 21.8244 132.3981 19.1244 135.9371 19.1244 135.9371 15.6264 132.3981 15.6264 132.3981 13.1984"></polygon>
                    <path d="M146.4905,12.9045 C147.6095,12.9095 148.6855,13.3305 149.5105,14.0855 L151.7575,11.2245 C150.2855,9.9585 148.3895,9.2935 146.4495,9.3645 C141.4295,9.3645 138.1635,12.9925 138.1635,17.5325 C138.1635,22.0725 141.2915,25.6585 146.5155,25.6585 C148.4595,25.7035 150.3395,24.9675 151.7365,23.6185 L149.5105,20.9385 C148.6905,21.6845 147.6255,22.1055 146.5155,22.1185 C143.8835,22.1185 142.1365,20.0985 142.1365,17.4995 C142.1365,14.8985 143.6985,12.9045 146.4905,12.9045" id="Fill-18" fill="#FFFFFF"></path>
                    <g id="Group-22" transform="translate(153.000000, 9.000000)">
                        <mask id="mask-4" fill="white">
                            <use xlink:href="#path-3"></use>
                        </mask>
                        <g id="Clip-21"></g>
                        <polygon id="Fill-20" fill="#FFFFFF" mask="url(#mask-4)" points="9.7425 6.5588 4.2965 6.5588 4.2965 0.6588 0.5035 0.6588 0.5035 16.3648 4.2965 16.3648 4.2965 10.1708 9.7425 10.1708 9.7425 16.3648 13.5355 16.3648 13.5355 0.6588 9.7425 0.6588"></polygon>
                    </g>
                    <path d="M67.719,37.4045 C67.719,36.1915 66.732,35.9145 65.669,35.7845 C65.061,35.7085 64.535,35.5875 64.535,35.1415 C64.535,34.7625 64.875,34.4665 65.59,34.4665 C66.06,34.4485 66.509,34.6595 66.794,35.0325 L67.559,34.6415 C67.173,33.8565 66.354,33.6295 65.56,33.6295 C64.623,33.6295 63.591,34.0505 63.591,35.1115 C63.591,36.2545 64.548,36.5325 65.59,36.6535 C66.266,36.7285 66.766,36.9225 66.766,37.4045 C66.766,37.9215 66.198,38.1525 65.598,38.1525 C64.999,38.2085 64.429,37.8865 64.166,37.3455 L63.365,37.7655 C63.741,38.6985 64.544,39.0265 65.581,39.0265 C66.715,39.0265 67.719,38.5395 67.719,37.4045" id="Fill-23" fill="#FFFFFF"></path>
                    <mask id="mask-6" fill="white">
                        <use xlink:href="#path-5"></use>
                    </mask>
                    <g id="Clip-26"></g>
                    <polygon id="Fill-25" fill="#FFFFFF" mask="url(#mask-6)" points="71.087 38.863 72.041 38.863 72.041 33.773 71.087 33.773"></polygon>
                    <polygon id="Fill-27" fill="#FFFFFF" mask="url(#mask-6)" points="80.9514 38.8654 80.9514 33.7764 79.8554 33.7764 78.2634 35.9694 76.6684 33.7764 75.5634 33.7764 75.5634 38.8654 76.5254 38.8654 76.5254 35.1664 78.1464 37.3844 78.3364 37.3844 79.9944 35.1744 79.9944 38.8654"></polygon>
                    <path d="M85.429,34.6799 L86.869,34.6799 C87.366,34.6449 87.797,35.0209 87.831,35.5189 C87.866,36.0169 87.49,36.4469 86.991,36.4819 C86.95,36.4839 86.91,36.4839 86.869,36.4819 L85.429,36.4819 L85.429,34.6799 Z M85.429,37.3639 L86.869,37.3639 C87.863,37.4109 88.708,36.6439 88.755,35.6509 C88.804,34.6579 88.036,33.8119 87.043,33.7639 C86.985,33.7619 86.927,33.7619 86.869,33.7639 L84.471,33.7639 L84.471,38.8539 L85.429,38.8539 L85.429,37.3639 Z" id="Fill-28" fill="#FFFFFF" mask="url(#mask-6)"></path>
                    <polygon id="Fill-29" fill="#FFFFFF" mask="url(#mask-6)" points="92.0013 33.7726 92.0013 38.8626 95.5783 38.8626 95.5783 37.9716 92.9633 37.9716 92.9633 33.7726"></polygon>
                    <polygon id="Fill-30" fill="#FFFFFF" mask="url(#mask-6)" points="98.88 38.863 99.833 38.863 99.833 33.773 98.88 33.773"></polygon>
                    <polygon id="Fill-31" fill="#FFFFFF" mask="url(#mask-6)" points="107.01 34.7004 107.01 33.7764 103.353 33.7764 103.353 38.8624 104.31 38.8624 104.31 36.9754 106.864 36.9754 106.864 36.0904 104.31 36.0904 104.31 34.7004"></polygon>
                    <polygon id="Fill-32" fill="#FFFFFF" mask="url(#mask-6)" points="113.138 38.8625 113.138 36.7585 115.166 33.8145 115.166 33.7725 114.011 33.7725 112.659 35.8725 111.366 33.7725 110.223 33.7725 110.223 33.8145 112.176 36.7585 112.176 38.8625"></polygon>
                    <polygon id="Fill-33" fill="#FFFFFF" mask="url(#mask-6)" points="124.9143 38.8625 124.9143 36.7585 126.9413 33.8145 126.9413 33.7725 125.7863 33.7725 124.4343 35.8725 123.1413 33.7725 121.9983 33.7725 121.9983 33.8145 123.9553 36.7585 123.9553 38.8625"></polygon>
                    <path d="M134.0393,36.3547 C134.0373,37.1937 133.5703,38.0897 132.3593,38.0897 C131.1453,38.0897 130.7093,37.1957 130.6793,36.3597 C130.6493,35.5237 131.1533,34.5337 132.3593,34.5337 C133.5613,34.5337 134.0503,35.4997 134.0393,36.3547 M132.3763,33.6707 C130.6163,33.6707 129.7553,35.0147 129.7553,36.3507 C129.6743,37.7197 130.7183,38.8937 132.0863,38.9747 C132.1833,38.9817 132.2793,38.9817 132.3763,38.9757 C134.1613,38.9757 134.9713,37.6617 134.9833,36.3457 C135.0703,34.9587 134.0153,33.7607 132.6263,33.6747 C132.5423,33.6687 132.4593,33.6677 132.3763,33.6707" id="Fill-34" fill="#FFFFFF" mask="url(#mask-6)"></path>
                    <path d="M138.3059,33.7805 L138.3059,36.6955 C138.2189,37.8655 139.0979,38.8845 140.2699,38.9705 C140.3689,38.9775 140.4699,38.9775 140.5699,38.9715 C141.8289,38.9715 142.7699,38.1985 142.7699,36.6955 L142.7699,33.7805 L141.8169,33.7805 L141.8169,36.6955 C141.8169,37.5645 141.3679,38.0975 140.5569,38.0975 C139.7459,38.0975 139.2429,37.6105 139.2429,36.6955 L139.2429,33.7805 L138.3059,33.7805 Z" id="Fill-35" fill="#FFFFFF" mask="url(#mask-6)"></path>
                    <path d="M148.8714,36.2912 C148.8324,36.2952 148.7934,36.2952 148.7554,36.2912 L148.7554,36.2962 L147.2934,36.2962 L147.2934,34.6662 L148.7554,34.6662 C149.2034,34.6352 149.5944,34.9722 149.6254,35.4212 C149.6574,35.8692 149.3194,36.2602 148.8714,36.2912 M150.5854,35.4562 C150.5854,34.5782 149.9514,33.7762 148.7554,33.7762 L146.3314,33.7762 L146.3314,38.8752 L147.2934,38.8752 L147.2934,37.1702 L148.2174,37.1702 L149.6994,38.8752 L150.8424,38.8752 L150.8424,38.8082 L149.3014,37.0682 C150.0874,36.9542 150.6494,36.2492 150.5854,35.4562" id="Fill-36" fill="#FFFFFF" mask="url(#mask-6)"></path>
                    <polygon id="Fill-37" fill="#FFFFFF" mask="url(#mask-6)" points="157.944 38.862 158.897 38.862 158.897 33.772 157.944 33.772"></polygon>
                    <polygon id="Fill-38" fill="#FFFFFF" mask="url(#mask-6)" points="164.9231 38.8459 164.9231 34.6459 166.5351 34.6459 166.5351 33.7729 162.3361 33.7729 162.3491 34.6459 163.9611 34.6459 163.9611 38.8459"></polygon>
                </g>
            </g>
        </g>
    </g>
</svg>